<mxfile host="Electron" modified="2023-12-06T00:53:07.451Z" agent="Mozilla/5.0 (Windows NT 10.0; Win64; x64) AppleWebKit/537.36 (KHTML, like Gecko) draw.io/22.0.3 Chrome/114.0.5735.289 Electron/25.8.4 Safari/537.36" etag="f2SgyXjv1qEu_b521s9u" version="22.0.3" type="device">
  <diagram name="Страница — 1" id="x2W3Am0ZSE1a8qnF3DJD">
    <mxGraphModel dx="1292" dy="1127" grid="1" gridSize="10" guides="1" tooltips="1" connect="1" arrows="1" fold="1" page="1" pageScale="1" pageWidth="1169" pageHeight="827" math="0" shadow="0">
      <root>
        <mxCell id="0" />
        <mxCell id="1" parent="0" />
        <object placeholders="1" c4Name="Диаграмма контейнеров" c4Type="ContainerScopeBoundary" c4Application="Цифровой сервис" label="&lt;font style=&quot;font-size: 16px&quot;&gt;&lt;b&gt;&lt;div style=&quot;&quot;&gt;%c4Name%&lt;/div&gt;&lt;/b&gt;&lt;/font&gt;&lt;div style=&quot;&quot;&gt;[%c4Application%]&lt;/div&gt;" id="6_c3G_TSjOBD9kvF4t2p-42">
          <mxCell style="rounded=1;fontSize=11;whiteSpace=wrap;html=1;dashed=1;arcSize=20;fillColor=#b1ddf0;strokeColor=#10739e;labelBackgroundColor=#83a1b1;align=center;verticalAlign=bottom;labelBorderColor=none;spacingTop=0;spacing=10;dashPattern=8 4;metaEdit=1;rotatable=0;perimeter=rectanglePerimeter;noLabel=0;labelPadding=0;allowArrows=0;connectable=0;expand=0;recursiveResize=0;editable=1;pointerEvents=0;absoluteArcSize=1;points=[[0.25,0,0],[0.5,0,0],[0.75,0,0],[1,0.25,0],[1,0.5,0],[1,0.75,0],[0.75,1,0],[0.5,1,0],[0.25,1,0],[0,0.75,0],[0,0.5,0],[0,0.25,0]];opacity=70;" vertex="1" parent="1">
            <mxGeometry y="15" width="1100" height="615" as="geometry" />
          </mxCell>
        </object>
        <object placeholders="1" c4Name="Telegram бот" c4Type="Компонент сервиса" c4Technology="Python Application" c4Description="Приложение бота, запущенное в инфраструктуре провайдера." label="&lt;font style=&quot;font-size: 16px&quot;&gt;&lt;b&gt;%c4Name%&lt;/b&gt;&lt;/font&gt;&lt;div&gt;[%c4Type%: %c4Technology%]&lt;/div&gt;&lt;br&gt;&lt;div&gt;&lt;font style=&quot;font-size: 11px&quot;&gt;%c4Description%&lt;/font&gt;&lt;/div&gt;" id="6_c3G_TSjOBD9kvF4t2p-3">
          <mxCell style="rounded=1;whiteSpace=wrap;html=1;labelBackgroundColor=none;fillColor=#63BEF2;fontColor=#ffffff;align=center;arcSize=6;strokeColor=#2086C9;metaEdit=1;resizable=0;points=[[0.25,0,0],[0.5,0,0],[0.75,0,0],[1,0.25,0],[1,0.5,0],[1,0.75,0],[0.75,1,0],[0.5,1,0],[0.25,1,0],[0,0.75,0],[0,0.5,0],[0,0.25,0]];" vertex="1" parent="1">
            <mxGeometry x="320" y="60" width="240" height="120" as="geometry" />
          </mxCell>
        </object>
        <object placeholders="1" c4Name="Gradio AI App" c4Type="Компонент сервиса" c4Technology="Python app" c4Description="Приложение, запущенное в инфраструктуре провайдера. Получает запрос от бота, обрабатывает и возвращает результат боту." label="&lt;font style=&quot;font-size: 16px&quot;&gt;&lt;b&gt;%c4Name%&lt;/b&gt;&lt;/font&gt;&lt;div&gt;[%c4Type%: %c4Technology%]&lt;/div&gt;&lt;br&gt;&lt;div&gt;&lt;font style=&quot;font-size: 11px&quot;&gt;%c4Description%&lt;/font&gt;&lt;/div&gt;" id="6_c3G_TSjOBD9kvF4t2p-4">
          <mxCell style="rounded=1;whiteSpace=wrap;html=1;labelBackgroundColor=none;fillColor=#63BEF2;fontColor=#ffffff;align=center;arcSize=6;strokeColor=#2086C9;metaEdit=1;resizable=0;points=[[0.25,0,0],[0.5,0,0],[0.75,0,0],[1,0.25,0],[1,0.5,0],[1,0.75,0],[0.75,1,0],[0.5,1,0],[0.25,1,0],[0,0.75,0],[0,0.5,0],[0,0.25,0]];" vertex="1" parent="1">
            <mxGeometry x="770" y="60" width="240" height="120" as="geometry" />
          </mxCell>
        </object>
        <object placeholders="1" c4Name="ML модель" c4Type="Компонент сервиса" c4Technology="Предобученная модель" c4Description="Text-to-text предобученная модель, используемая приложением для обработки данных." label="&lt;font style=&quot;font-size: 16px&quot;&gt;&lt;b&gt;%c4Name%&lt;/b&gt;&lt;/font&gt;&lt;div&gt;[%c4Type%: %c4Technology%]&lt;/div&gt;&lt;br&gt;&lt;div&gt;&lt;font style=&quot;font-size: 11px&quot;&gt;%c4Description%&lt;/font&gt;&lt;/div&gt;" id="6_c3G_TSjOBD9kvF4t2p-9">
          <mxCell style="rounded=1;whiteSpace=wrap;html=1;labelBackgroundColor=none;fillColor=#63BEF2;fontColor=#ffffff;align=center;arcSize=6;strokeColor=#2086C9;metaEdit=1;resizable=0;points=[[0.25,0,0],[0.5,0,0],[0.75,0,0],[1,0.25,0],[1,0.5,0],[1,0.75,0],[0.75,1,0],[0.5,1,0],[0.25,1,0],[0,0.75,0],[0,0.5,0],[0,0.25,0]];" vertex="1" parent="1">
            <mxGeometry x="770" y="280" width="240" height="120" as="geometry" />
          </mxCell>
        </object>
        <object placeholders="1" c4Name="Клиент" c4Type="Внешний контейнер" c4Technology="приложение Telegram" c4Description="" label="&lt;font style=&quot;font-size: 16px&quot;&gt;&lt;b&gt;%c4Name%&lt;/b&gt;&lt;/font&gt;&lt;div&gt;[%c4Type%: %c4Technology%]&lt;/div&gt;&lt;br&gt;&lt;div&gt;&lt;font style=&quot;font-size: 11px&quot;&gt;&lt;font color=&quot;#E6E6E6&quot;&gt;%c4Description%&lt;/font&gt;&lt;/div&gt;" id="6_c3G_TSjOBD9kvF4t2p-10">
          <mxCell style="rounded=1;whiteSpace=wrap;html=1;fontSize=11;labelBackgroundColor=none;align=center;arcSize=10;metaEdit=1;resizable=0;points=[[0.25,0,0],[0.5,0,0],[0.75,0,0],[1,0.25,0],[1,0.5,0],[1,0.75,0],[0.75,1,0],[0.5,1,0],[0.25,1,0],[0,0.75,0],[0,0.5,0],[0,0.25,0]];fillColor=#83a1b1;" vertex="1" parent="1">
            <mxGeometry x="30" y="260" width="240" height="120" as="geometry" />
          </mxCell>
        </object>
        <object placeholders="1" c4Name="Telegram API" c4Type="Внешний компонент: Telegram API" c4Technology="MTPROTO" c4Description="API внешнего сервиса, обеспечивающий интеграцию клиента и бота." label="&lt;font style=&quot;font-size: 16px&quot;&gt;&lt;b&gt;%c4Name%&lt;/b&gt;&lt;/font&gt;&lt;div&gt;[%c4Type%: %c4Technology%]&lt;/div&gt;&lt;br&gt;&lt;div&gt;&lt;font style=&quot;font-size: 11px&quot;&gt;%c4Description%&lt;/font&gt;&lt;/div&gt;" id="6_c3G_TSjOBD9kvF4t2p-11">
          <mxCell style="rounded=1;whiteSpace=wrap;html=1;labelBackgroundColor=none;align=center;arcSize=6;metaEdit=1;resizable=0;points=[[0.25,0,0],[0.5,0,0],[0.75,0,0],[1,0.25,0],[1,0.5,0],[1,0.75,0],[0.75,1,0],[0.5,1,0],[0.25,1,0],[0,0.75,0],[0,0.5,0],[0,0.25,0]];fillColor=#83a1b1;" vertex="1" parent="1">
            <mxGeometry x="320" y="440" width="240" height="120" as="geometry" />
          </mxCell>
        </object>
        <mxCell id="6_c3G_TSjOBD9kvF4t2p-18" style="edgeStyle=orthogonalEdgeStyle;rounded=0;orthogonalLoop=1;jettySize=auto;html=1;exitX=0.25;exitY=1;exitDx=0;exitDy=0;exitPerimeter=0;entryX=0;entryY=0.75;entryDx=0;entryDy=0;entryPerimeter=0;" edge="1" parent="1" source="6_c3G_TSjOBD9kvF4t2p-10" target="6_c3G_TSjOBD9kvF4t2p-11">
          <mxGeometry relative="1" as="geometry" />
        </mxCell>
        <mxCell id="6_c3G_TSjOBD9kvF4t2p-38" value="Инициализирует запрос&amp;nbsp;" style="edgeLabel;html=1;align=center;verticalAlign=middle;resizable=0;points=[];labelBackgroundColor=#83a1b1;" vertex="1" connectable="0" parent="6_c3G_TSjOBD9kvF4t2p-18">
          <mxGeometry x="0.1789" y="-1" relative="1" as="geometry">
            <mxPoint x="26" y="-1" as="offset" />
          </mxGeometry>
        </mxCell>
        <mxCell id="6_c3G_TSjOBD9kvF4t2p-19" style="edgeStyle=orthogonalEdgeStyle;rounded=0;orthogonalLoop=1;jettySize=auto;html=1;entryX=0.5;entryY=1;entryDx=0;entryDy=0;entryPerimeter=0;startArrow=classic;startFill=1;" edge="1" parent="1" target="6_c3G_TSjOBD9kvF4t2p-10">
          <mxGeometry relative="1" as="geometry">
            <mxPoint x="320" y="507" as="sourcePoint" />
          </mxGeometry>
        </mxCell>
        <mxCell id="6_c3G_TSjOBD9kvF4t2p-39" value="Ожидает ответ" style="edgeLabel;html=1;align=center;verticalAlign=middle;resizable=0;points=[];labelBackgroundColor=#83a1b1;" vertex="1" connectable="0" parent="6_c3G_TSjOBD9kvF4t2p-19">
          <mxGeometry x="-0.05" relative="1" as="geometry">
            <mxPoint x="28" as="offset" />
          </mxGeometry>
        </mxCell>
        <mxCell id="6_c3G_TSjOBD9kvF4t2p-21" style="edgeStyle=orthogonalEdgeStyle;rounded=0;orthogonalLoop=1;jettySize=auto;html=1;exitX=0.25;exitY=1;exitDx=0;exitDy=0;exitPerimeter=0;entryX=0.25;entryY=0;entryDx=0;entryDy=0;entryPerimeter=0;startArrow=classic;startFill=1;" edge="1" parent="1">
          <mxGeometry relative="1" as="geometry">
            <mxPoint x="439.5" y="180" as="sourcePoint" />
            <mxPoint x="439.5" y="440" as="targetPoint" />
          </mxGeometry>
        </mxCell>
        <mxCell id="6_c3G_TSjOBD9kvF4t2p-37" value="Получает и отправляет контент" style="edgeLabel;html=1;align=center;verticalAlign=middle;resizable=0;points=[];labelBackgroundColor=#83a1b1;" vertex="1" connectable="0" parent="6_c3G_TSjOBD9kvF4t2p-21">
          <mxGeometry x="-0.0308" y="1" relative="1" as="geometry">
            <mxPoint as="offset" />
          </mxGeometry>
        </mxCell>
        <mxCell id="6_c3G_TSjOBD9kvF4t2p-25" style="edgeStyle=orthogonalEdgeStyle;rounded=0;orthogonalLoop=1;jettySize=auto;html=1;exitX=1;exitY=0.25;exitDx=0;exitDy=0;exitPerimeter=0;entryX=0;entryY=0.25;entryDx=0;entryDy=0;entryPerimeter=0;startArrow=classic;startFill=1;" edge="1" parent="1">
          <mxGeometry relative="1" as="geometry">
            <mxPoint x="560" y="119.5" as="sourcePoint" />
            <mxPoint x="770" y="119.5" as="targetPoint" />
          </mxGeometry>
        </mxCell>
        <mxCell id="6_c3G_TSjOBD9kvF4t2p-30" value="Получает и отправляет контент" style="edgeLabel;html=1;align=center;verticalAlign=middle;resizable=0;points=[];labelBackgroundColor=#83a1b1;" vertex="1" connectable="0" parent="6_c3G_TSjOBD9kvF4t2p-25">
          <mxGeometry x="-0.0381" y="1" relative="1" as="geometry">
            <mxPoint x="6" y="1" as="offset" />
          </mxGeometry>
        </mxCell>
        <mxCell id="6_c3G_TSjOBD9kvF4t2p-28" style="rounded=0;orthogonalLoop=1;jettySize=auto;html=1;exitX=0.5;exitY=1;exitDx=0;exitDy=0;exitPerimeter=0;entryX=0.5;entryY=0;entryDx=0;entryDy=0;entryPerimeter=0;startArrow=classic;startFill=1;endArrow=none;endFill=0;" edge="1" parent="1" source="6_c3G_TSjOBD9kvF4t2p-4" target="6_c3G_TSjOBD9kvF4t2p-9">
          <mxGeometry relative="1" as="geometry" />
        </mxCell>
        <mxCell id="6_c3G_TSjOBD9kvF4t2p-29" value="Использует" style="edgeLabel;html=1;align=center;verticalAlign=middle;resizable=0;points=[];labelBackgroundColor=#83a1b1;" vertex="1" connectable="0" parent="6_c3G_TSjOBD9kvF4t2p-28">
          <mxGeometry x="0.02" y="-1" relative="1" as="geometry">
            <mxPoint as="offset" />
          </mxGeometry>
        </mxCell>
        <mxCell id="6_c3G_TSjOBD9kvF4t2p-40" style="edgeStyle=orthogonalEdgeStyle;rounded=0;orthogonalLoop=1;jettySize=auto;html=1;exitX=0.75;exitY=1;exitDx=0;exitDy=0;exitPerimeter=0;entryX=0;entryY=0.342;entryDx=0;entryDy=0;entryPerimeter=0;startArrow=classic;startFill=1;endArrow=none;endFill=0;" edge="1" parent="1" source="6_c3G_TSjOBD9kvF4t2p-10" target="6_c3G_TSjOBD9kvF4t2p-11">
          <mxGeometry relative="1" as="geometry" />
        </mxCell>
        <mxCell id="6_c3G_TSjOBD9kvF4t2p-41" value="Получает ответ" style="edgeLabel;html=1;align=center;verticalAlign=middle;resizable=0;points=[];labelBackgroundColor=#83a1b1;" vertex="1" connectable="0" parent="6_c3G_TSjOBD9kvF4t2p-40">
          <mxGeometry x="0.7251" y="-2" relative="1" as="geometry">
            <mxPoint x="-31" y="-3" as="offset" />
          </mxGeometry>
        </mxCell>
      </root>
    </mxGraphModel>
  </diagram>
</mxfile>
